<svg width="24" height="24" viewBox="0 0 24 24" fill="none" xmlns="http://www.w3.org/2000/svg">
<path d="M0 12C0 5.37258 5.37258 0 12 0C18.6274 0 24 5.37258 24 12C24 18.6274 18.6274 24 12 24C5.37258 24 0 18.6274 0 12Z" fill="#CE0404"/>
<path fill-rule="evenodd" clip-rule="evenodd" d="M15.0856 16.9136C15.5223 17.46 16.0462 18.0783 16.0462 18.0783C19.2628 17.9777 20.5 15.8927 20.5 15.8927C20.5 11.2628 18.4041 7.50995 18.4041 7.50995C16.3082 5.95704 14.3142 6.00018 14.3142 6.00018L14.1104 6.23024C16.5848 6.97793 17.7346 8.05634 17.7346 8.05634C16.2209 7.23675 14.7363 6.83415 13.3536 6.67598C12.3057 6.56095 11.3014 6.58971 10.4135 6.70474C10.3373 6.70474 10.2721 6.7157 10.1987 6.72805C10.188 6.72984 10.1772 6.73167 10.1661 6.7335C9.65668 6.77663 8.41952 6.96356 6.86216 7.63936C6.32363 7.88379 6.00342 8.05634 6.00342 8.05634C6.00342 8.05634 7.21147 6.92042 9.83134 6.17273L9.68579 6.00018C9.68579 6.00018 7.69178 5.95704 5.59589 7.50995C5.59589 7.50995 3.5 11.2628 3.5 15.8927C3.5 15.8927 4.7226 17.9777 7.93921 18.0783C7.93921 18.0783 8.47774 17.4313 8.91438 16.8849C7.06592 16.3385 6.36729 15.1882 6.36729 15.1882C6.36729 15.1882 6.51284 15.2888 6.77483 15.4326C6.78938 15.447 6.80394 15.4614 6.83305 15.4758C6.85488 15.4901 6.87671 15.5009 6.89854 15.5117C6.92038 15.5225 6.94221 15.5333 6.96404 15.5477C7.32791 15.749 7.69178 15.9071 8.02654 16.0365C8.62329 16.2666 9.33647 16.4967 10.1661 16.6548C11.2577 16.8561 12.5385 16.928 13.9358 16.6692C14.6199 16.5542 15.3185 16.3529 16.0462 16.0509C16.5557 15.864 17.1233 15.5908 17.72 15.2026C17.72 15.2026 16.9923 16.3816 15.0856 16.9136ZM9.21806 10.3959C8.39498 10.3959 7.74517 11.1361 7.74517 12.0392C7.74517 12.9423 8.40942 13.6825 9.21806 13.6825C10.0411 13.6825 10.691 12.9423 10.691 12.0392C10.7054 11.1361 10.0411 10.3959 9.21806 10.3959ZM14.4886 10.396C13.6655 10.396 13.0157 11.1362 13.0157 12.0392C13.0157 12.9423 13.68 13.6825 14.4886 13.6825C15.3117 13.6825 15.9615 12.9423 15.9615 12.0392C15.9615 11.1362 15.3117 10.396 14.4886 10.396Z" fill="white"/>
</svg>
