<svg width="120" height="42" viewBox="0 0 120 42" fill="none" xmlns="http://www.w3.org/2000/svg">
<path d="M36.2131 25.0112C36.1823 25.3137 36.1698 25.6226 36.1205 25.9251C35.9599 26.9208 35.4966 27.7275 34.6441 28.2759C34.607 28.3011 34.57 28.3453 34.5452 28.383C33.878 29.6685 33.0255 30.8219 32.1051 31.9247C31.9999 32.0446 31.9629 32.1706 31.9691 32.3346C31.9999 33.3428 31.8146 34.3069 31.4502 35.2396C31.1907 35.9079 30.9005 36.557 30.4988 37.1492C29.8749 38.0695 29.0965 38.8068 28.0216 39.1659C27.0517 39.4873 26.0571 39.6072 25.0441 39.5694C24.3213 39.5442 23.6046 39.5064 22.8942 39.374C21.9985 39.2039 21.1521 38.9076 20.4417 38.3089C20.3367 38.2207 20.2316 38.1008 20.1699 37.9748C20.0031 37.641 19.7374 37.4581 19.4039 37.3573C18.9097 37.2061 18.4093 37.1492 17.9027 37.288C17.5876 37.3698 17.3467 37.5463 17.1614 37.8236C17.0131 38.0506 16.8525 38.2837 16.6672 38.4791C16.3768 38.7941 15.9753 38.9328 15.5923 39.0966C14.6965 39.4748 13.7513 39.6008 12.8 39.6385C12.2008 39.6638 11.5954 39.6827 10.9961 39.6385C10.1992 39.5819 9.40849 39.4307 8.67336 39.0777C7.88879 38.6997 7.27105 38.1261 6.77066 37.414C6.36294 36.8279 6.0417 36.1976 5.76989 35.5296C5.44246 34.7293 5.24479 33.8912 5.18919 33.0278C5.17066 32.7944 5.18919 32.5549 5.183 32.3154C5.183 32.2399 5.15212 32.1581 5.10887 32.1012C4.54673 31.3577 3.96602 30.6265 3.42239 29.8639C3.13823 29.4606 2.92819 29.0069 2.67491 28.5784C2.61313 28.4713 2.52665 28.3641 2.4278 28.2948C1.58147 27.7087 1.13668 26.8831 0.988421 25.8748C0.8834 25.1816 0.901933 24.4945 1.19846 23.8454C1.49498 23.2026 1.92124 22.6669 2.4834 22.251C2.89731 21.9485 3.33591 21.6901 3.76216 21.4065C3.79923 21.3813 3.84248 21.3182 3.83629 21.2804C3.67568 20.4801 3.63243 19.6734 3.57065 18.8667C3.57065 18.8604 3.56449 18.8604 3.5583 18.8352C3.47182 18.8163 3.36679 18.7974 3.26796 18.7722C3.10117 18.7343 2.9776 18.6461 2.96525 18.4634C2.9529 18.1861 2.94053 17.8962 2.97144 17.6189C3.00232 17.3542 3.15058 17.2596 3.42239 17.266C3.62625 17.2723 3.62625 17.2723 3.65097 17.0643C3.74981 16.2072 3.90424 15.3627 4.13282 14.5308C4.18842 14.3228 4.3058 14.1968 4.52201 14.1905C4.86795 14.1779 5.21391 14.159 5.55366 14.159C5.73899 14.159 5.86256 14.0581 5.82549 13.8628C5.76371 13.4972 5.81312 13.138 5.89344 12.7851C5.91815 12.6654 6.00463 12.5645 6.06023 12.4574C6.10348 12.3692 6.16524 12.2872 6.17143 12.1927C6.22084 11.594 6.23937 10.9953 6.29497 10.3966C6.40001 9.26217 6.5915 8.14039 6.99922 7.06902C7.42547 5.94724 8.09266 4.99561 9.11196 4.3654C9.63088 4.04398 10.2054 3.80451 10.7738 3.57761C12.3305 2.9537 13.9614 2.65121 15.6232 2.53146C17.3961 2.39911 19.1753 2.38021 20.9544 2.44954C22.3938 2.50626 23.8024 2.71423 25.1861 3.13017C26.0324 3.38224 26.854 3.69736 27.6262 4.1259C28.4479 4.57967 29.1088 5.20988 29.5969 6.03546C30.19 7.04382 30.4802 8.14669 30.647 9.2874C30.7768 10.2075 30.8323 11.1402 30.919 12.0666C30.9313 12.2116 30.9746 12.3313 31.0673 12.4574C31.1659 12.5897 31.2278 12.7851 31.2463 12.9553C31.2771 13.2389 31.2711 13.5288 31.2711 13.8124C31.2711 14.0266 31.3575 14.1085 31.5614 14.1148C31.9258 14.1275 32.2904 14.1464 32.6548 14.1779C32.871 14.1968 32.9947 14.3354 33.0378 14.5434C33.186 15.2429 33.3283 15.9425 33.4703 16.642C33.5011 16.787 33.5073 16.9319 33.5196 17.0769C33.5259 17.1777 33.5629 17.2281 33.6679 17.2092C33.9829 17.1651 34.1808 17.3101 34.193 17.7134C34.1993 17.9277 34.1993 18.1356 34.1808 18.3499C34.156 18.5831 34.0571 18.6713 33.8347 18.7155C33.5629 18.7722 33.5752 18.7722 33.5506 19.0558C33.4825 19.7238 33.4084 20.3855 33.322 21.0473C33.2912 21.2867 33.2787 21.2804 33.4825 21.3876C34.0881 21.709 34.6686 22.0871 35.132 22.5976C35.7005 23.2278 36.1452 23.94 36.1883 24.8411C36.1883 24.8727 36.2008 24.9105 36.2069 24.9421C36.2131 24.9671 36.2131 24.9923 36.2131 25.0112ZM20.2378 35.7314C20.2316 35.7502 20.2255 35.7691 20.2193 35.788C20.3058 35.8385 20.3923 35.889 20.4788 35.9267C20.6764 36.0211 20.7012 36.078 20.6517 36.2922C20.5776 36.5822 20.5096 36.8783 20.4417 37.1745C20.3305 37.6471 20.5158 37.9876 20.8618 38.2837C21.288 38.6556 21.8008 38.8382 22.3259 38.9833C24.0433 39.4434 25.7729 39.4434 27.509 39.0588C28.664 38.8068 29.5536 38.1513 30.2085 37.1431C30.7582 36.2986 31.1537 35.3848 31.4317 34.4204C31.8579 32.9457 31.8456 31.4962 31.2215 30.0656C30.8694 29.2653 30.3382 28.6603 29.5165 28.3578C29.0409 28.1877 28.5591 28.0428 28.0772 27.904C26.9775 27.5763 25.9522 27.0909 24.976 26.4859C23.858 25.7991 22.888 24.9105 21.9181 24.0282C21.2695 23.4358 20.5714 22.9505 19.7745 22.5913C18.9961 22.2384 18.2178 22.2699 17.4394 22.5724C16.8154 22.8119 16.2718 23.1837 15.7652 23.6122C15.0734 24.1984 14.4062 24.8097 13.7143 25.3958C12.9359 26.0574 12.1019 26.6436 11.1876 27.1037C10.4525 27.4755 9.70501 27.7905 8.92047 28.0237C8.45096 28.1624 7.98146 28.3011 7.53051 28.4901C7.061 28.6855 6.65328 28.988 6.34441 29.4101C6.01698 29.8577 5.85019 30.3681 5.67723 30.8849C5.36217 31.8303 5.36833 32.8008 5.5475 33.7713C5.72046 34.7104 6.06023 35.5863 6.50502 36.4246C6.7336 36.8595 6.96834 37.288 7.2834 37.6723C7.74672 38.2396 8.29652 38.6869 8.98223 38.9453C9.81005 39.2542 10.6749 39.3929 11.5521 39.4243C12.5529 39.4623 13.5475 39.4118 14.5235 39.1659C15.2031 38.9958 15.8703 38.8132 16.4201 38.3342C16.7475 38.0442 16.9266 37.704 16.8216 37.2563C16.7598 37.0043 16.6981 36.746 16.6363 36.494C16.5436 36.1157 16.5436 36.1157 16.8834 35.9329C16.939 35.9015 16.9884 35.851 17.0378 35.8069C17.0317 35.7944 17.0193 35.7816 17.0131 35.7691C16.9452 35.7816 16.8772 35.788 16.8093 35.8007C16.7413 35.8132 16.6733 35.8321 16.6054 35.8449C16.4139 35.8762 16.3336 35.8385 16.278 35.6495C16.0741 34.9435 15.8764 34.2378 15.6849 33.5318C15.654 33.4122 15.7035 33.3364 15.8208 33.305C15.9135 33.2798 16.0062 33.2357 16.105 33.2168C16.2718 33.1852 16.2965 33.0844 16.2965 32.9332C16.2842 32.5361 16.2718 32.1392 16.278 31.7421C16.278 31.5531 16.3645 31.4837 16.5498 31.4773C16.661 31.471 16.7784 31.4837 16.8896 31.4837C17.0873 31.4773 17.1243 31.4207 17.044 31.2442C16.9761 31.0866 16.9019 30.9353 16.8216 30.7841C16.7537 30.6581 16.766 30.5446 16.8463 30.4311C17.0749 30.1097 17.39 29.946 17.7606 29.8702C17.9274 29.8389 18.0262 29.8891 18.1251 30.0215C18.2734 30.2232 18.4402 30.4122 18.6193 30.6265C18.7985 30.4059 18.9529 30.198 19.1259 30.0026C19.1876 29.9332 19.2865 29.845 19.373 29.845C19.793 29.8577 20.1328 30.0342 20.3799 30.387C20.4664 30.5132 20.4788 30.6454 20.4108 30.7841C20.3367 30.929 20.2626 31.0802 20.2008 31.2315C20.139 31.3827 20.1822 31.4396 20.3367 31.4396C20.4232 31.4396 20.5035 31.4396 20.59 31.4332C20.9174 31.4207 20.9853 31.4837 20.9853 31.8176C20.9853 32.1392 20.973 32.4606 20.9668 32.7819C20.9606 33.0403 20.9606 33.0403 21.1954 33.1222C21.5784 33.2545 21.6031 33.2923 21.5104 33.683C21.5043 33.6958 21.5043 33.7147 21.4981 33.7272C21.3189 34.3638 21.1398 34.994 20.9668 35.6304C20.9297 35.7566 20.8556 35.8007 20.7382 35.788C20.6641 35.7755 20.59 35.7628 20.522 35.7502C20.4046 35.7566 20.3182 35.7439 20.2378 35.7314ZM30.5977 12.2305C30.6039 12.1612 30.61 12.1171 30.6039 12.0666C30.5298 11.0457 30.4865 10.0248 30.3012 9.0164C30.1096 7.98285 29.8378 6.98709 29.2818 6.09219C28.9049 5.49347 28.4416 4.98301 27.8611 4.59857C27.1198 4.1133 26.3043 3.79188 25.4703 3.51459C24.2101 3.09865 22.9127 2.87808 21.5907 2.77093C20.4355 2.67641 19.2803 2.68901 18.1251 2.70161C16.766 2.71423 15.4131 2.78355 14.0664 2.99152C12.6208 3.2184 11.2309 3.62174 9.90271 4.24565C8.77837 4.76874 7.98764 5.63212 7.45019 6.74762C6.99922 7.69295 6.80154 8.72651 6.67181 9.76006C6.58534 10.4533 6.55443 11.1528 6.50502 11.8524C6.49267 11.9784 6.50502 12.1108 6.50502 12.2368C6.52974 12.2431 6.54827 12.2494 6.56062 12.2494C6.61003 12.2431 6.65947 12.2368 6.70888 12.2305C9.14286 11.7389 11.5954 11.4301 14.0726 11.323C15.4131 11.2663 16.7599 11.2474 18.1004 11.2222C20.2872 11.1781 22.468 11.2222 24.6424 11.3986C26.3659 11.5373 28.0772 11.7641 29.7822 12.0856C30.0479 12.1297 30.3134 12.1738 30.5977 12.2305ZM9.06873 27.7275C9.22316 27.6393 9.35907 27.5638 9.49499 27.488C9.983 27.2297 10.4772 26.9965 10.9529 26.7193C11.8795 26.1709 12.6764 25.465 13.4116 24.671C14.2579 23.751 15.0981 22.8371 15.9629 21.9296C16.4139 21.4569 16.9328 21.0662 17.5259 20.7952C18.3784 20.4107 19.2062 20.5053 20.0093 20.9905C20.6579 21.3813 21.2139 21.8854 21.7266 22.44C22.6038 23.3728 23.4625 24.318 24.3459 25.2318C25.0256 25.9314 25.8225 26.4923 26.681 26.9524C27.1198 27.1856 27.5706 27.3809 28.0154 27.6015C28.0895 27.6393 28.1205 27.6079 28.1513 27.5447C28.2748 27.2927 28.3985 27.0407 28.5343 26.7948C28.8185 26.2844 29.1151 25.7738 29.4053 25.2696C29.6462 24.86 29.8749 24.4442 29.9984 23.9714C30.2208 23.127 29.9368 22.2447 28.9976 21.8728C28.7692 21.7783 28.5283 21.7279 28.2873 21.6523C26.8232 21.2048 25.4826 20.4927 24.2286 19.6041C23.5244 19.1062 22.8448 18.5642 22.1652 18.0285C21.4672 17.4865 20.7629 16.9634 19.9475 16.6231C19.0517 16.2513 18.1498 16.2198 17.2479 16.5916C16.4819 16.9067 15.8208 17.3857 15.1722 17.8899C14.3444 18.5327 13.5166 19.1881 12.6641 19.7931C11.5336 20.5935 10.3104 21.2174 9.00076 21.6523C8.61776 21.7783 8.21622 21.8476 7.85791 22.0619C7.28958 22.4085 6.92509 23.1018 7.07335 23.7824C7.1722 24.2361 7.339 24.6521 7.56757 25.0553C8.02471 25.8432 8.4695 26.6436 8.91429 27.4375C8.97607 27.5197 9.0193 27.6268 9.06873 27.7275ZM6.62856 16.9067C6.6471 16.9067 6.66563 16.9067 6.68416 16.9004C6.7336 17.1714 6.77683 17.4424 6.82626 17.7134C6.94362 18.3373 7.04247 18.9612 7.18455 19.5788C7.29574 20.0515 7.48107 20.5053 7.87645 20.8204C8.14209 21.0284 8.43243 21.1985 8.71661 21.375C8.75984 21.4002 8.83397 21.4065 8.8834 21.3876C9.68032 21.1355 10.4587 20.8141 11.1876 20.4044C12.4479 19.6923 13.6093 18.8289 14.7459 17.934C15.4131 17.4109 16.0865 16.9004 16.8401 16.5223C17.878 15.9992 18.9282 15.9551 19.9907 16.3899C20.627 16.6483 21.1892 17.0454 21.7452 17.4487C22.783 18.205 23.8024 18.9801 24.8588 19.7112C25.8903 20.417 27.0146 20.9527 28.2007 21.3497C28.2625 21.3687 28.3429 21.3876 28.3985 21.3623C29.0903 21.0347 29.671 20.5809 29.8686 19.7868C30.0417 19.0873 30.1652 18.3814 30.3074 17.6756C30.3505 17.4613 30.3753 17.247 30.4123 17.0328C30.4246 17.0328 30.4371 17.0328 30.4494 17.0328C30.4802 17.3353 30.5235 17.6378 30.5421 17.9466C30.5977 19.0558 30.6718 20.1586 30.8694 21.2489C30.919 21.5199 30.925 21.7972 30.783 22.043C30.6533 22.2636 30.4988 22.4715 30.3445 22.6795C30.2889 22.7551 30.2641 22.8119 30.2826 22.9064C30.3197 23.1333 30.3445 23.3665 30.369 23.5933C30.3753 23.6436 30.3753 23.7005 30.3815 23.751C30.3938 23.7571 30.4061 23.7635 30.4186 23.7699C30.4432 23.7382 30.4617 23.7069 30.4865 23.6752C30.6347 23.4736 30.783 23.2719 30.925 23.0702C31.2896 22.5598 31.4254 21.9863 31.339 21.356C31.2896 20.9653 31.2526 20.5746 31.234 20.1838C31.1784 18.8919 31.1289 17.6063 31.0918 16.3143C31.0733 15.6526 31.0918 14.9909 31.0858 14.3354C31.0858 14.0581 31.0547 14.0329 30.7893 13.9762C28.6395 13.5099 26.4649 13.1632 24.2717 13.0372C22.4988 12.93 20.7197 12.8607 18.9405 12.8229C17.8594 12.7977 16.7784 12.8481 15.6973 12.8859C13.9243 12.9489 12.1575 13.0687 10.3969 13.3019C9.03783 13.4846 7.67877 13.7178 6.34441 14.0203C6.07258 14.0833 6.04788 14.1148 6.02935 14.4048C6.02317 14.4867 6.02935 14.5686 6.02935 14.6442C6.03551 15.0917 6.06023 15.5391 6.04788 15.9866C6.02935 16.8815 6.00463 17.7827 5.96138 18.6776C5.91197 19.6419 5.83784 20.6061 5.77605 21.5703C5.74517 22.0304 5.81312 22.4652 6.04788 22.8623C6.18378 23.0892 6.33822 23.3097 6.48649 23.524C6.56062 23.6248 6.64093 23.7194 6.72741 23.8265C6.76448 23.5366 6.77683 23.2719 6.83242 23.0135C6.86333 22.8686 6.83861 22.774 6.7336 22.6732C6.3691 22.314 6.20231 21.8665 6.26409 21.3497C6.30116 21.0221 6.35676 20.688 6.38147 20.3603C6.44942 19.478 6.49883 18.5894 6.56062 17.7071C6.58534 17.4361 6.60387 17.1714 6.62856 16.9067ZM5.20154 31.7673C5.22625 31.7043 5.23244 31.6852 5.2386 31.6663C5.3498 30.9731 5.57219 30.324 5.88109 29.7001C5.90578 29.656 5.89344 29.5678 5.86256 29.5236C5.74517 29.3158 5.60926 29.114 5.47953 28.9123C4.62702 27.5322 3.79923 26.1332 3.10733 24.6646C3.05173 24.5513 2.99613 24.4442 2.93437 24.3307C2.89731 24.3496 2.87259 24.3621 2.85405 24.3749C2.39073 24.7656 2.04479 25.2257 2.07568 25.8748C2.08803 26.1457 2.11892 26.4168 2.1807 26.6813C2.34748 27.3809 2.69344 28.0048 3.02703 28.635C3.50889 29.5552 4.11429 30.3934 4.7444 31.219C4.88648 31.3955 5.03474 31.5656 5.20154 31.7673ZM34.2116 24.2297C34.1745 24.2991 34.1497 24.3432 34.1252 24.3874C33.773 25.0617 33.4455 25.7424 33.0688 26.3977C32.4943 27.3998 31.8887 28.3767 31.2896 29.366C31.2215 29.4734 31.2215 29.5614 31.2711 29.6812C31.4564 30.1414 31.6293 30.6076 31.79 31.0741C31.8517 31.2506 31.8764 31.4396 31.9198 31.6602C31.9999 31.572 32.0618 31.5151 32.1174 31.4457C32.5622 30.8346 33.0317 30.2296 33.4517 29.5994C34.0696 28.6666 34.6378 27.7023 34.9466 26.6122C35.0333 26.3033 35.0641 25.9692 35.0578 25.6478C35.0518 25.2318 34.8169 24.898 34.57 24.5891C34.4773 24.4567 34.3476 24.356 34.2116 24.2297ZM5.75752 17.0391C5.75136 17.0391 5.73899 17.0391 5.73283 17.0391C5.73283 16.2513 5.72664 15.4572 5.73899 14.6695C5.73899 14.5245 5.68958 14.4867 5.55985 14.4867C5.2942 14.493 5.02858 14.4804 4.76293 14.493C4.46641 14.5056 4.46022 14.5182 4.36756 14.8144C4.34286 14.9026 4.3058 14.9846 4.29343 15.0728C4.1946 15.7282 4.08957 16.3836 4.00309 17.0391C3.86101 18.1987 3.87336 19.3583 4.01544 20.5179C4.05869 20.8519 4.13282 21.1796 4.21314 21.5073C4.23167 21.5892 4.34286 21.6838 4.42934 21.7027C4.70734 21.7657 4.99151 21.7909 5.27567 21.835C5.38687 21.8539 5.43012 21.7972 5.4363 21.6964C5.461 21.4254 5.50425 21.1544 5.51659 20.8834C5.6031 19.6041 5.67723 18.3247 5.75752 17.0391ZM31.3883 16.5853C31.4439 17.8142 31.4935 18.9612 31.5551 20.1019C31.5799 20.5998 31.6478 21.0914 31.6911 21.5892C31.7034 21.7216 31.7405 21.8035 31.9012 21.7783C32.1359 21.7342 32.3768 21.7027 32.6178 21.6775C32.7723 21.6586 32.8587 21.5829 32.8895 21.4317C32.9761 20.9905 33.0996 20.5494 33.149 20.1019C33.3097 18.7659 33.2293 17.4235 33.0255 16.1C32.9513 15.6022 32.8154 15.1169 32.7042 14.6316C32.6796 14.5182 32.6055 14.4678 32.5003 14.4678C32.1667 14.4615 31.8331 14.4615 31.4935 14.4615C31.4008 14.4615 31.3698 14.5056 31.3698 14.6064C31.3883 15.2871 31.3883 15.9803 31.3883 16.5853ZM31.6355 22.4022C31.4935 22.6543 31.3638 22.919 31.197 23.1585C30.783 23.7699 30.3197 24.3496 29.9305 24.9798C29.4795 25.7108 29.0903 26.4859 28.6825 27.2422C28.6024 27.3873 28.5591 27.551 28.4972 27.715C28.8062 27.8094 29.0903 27.904 29.3683 27.9859C29.3993 27.9923 29.4486 27.9607 29.4734 27.9293C29.5661 27.8094 29.6525 27.6898 29.7329 27.5638C30.4246 26.4987 31.1043 25.4208 31.6974 24.293C31.9012 23.9022 32.1111 23.5114 32.315 23.1207C32.346 23.0639 32.4016 23.0072 32.315 22.9379C32.0866 22.7614 31.8642 22.5787 31.6355 22.4022ZM5.51043 22.4463C5.30657 22.6102 5.10271 22.7866 4.88648 22.9442C4.76912 23.0261 4.76293 23.0955 4.83088 23.2152C5.3498 24.1354 5.84402 25.0681 6.38147 25.9819C6.78301 26.6688 7.23398 27.3243 7.6664 27.9923C7.69112 28.03 7.7776 28.0489 7.82703 28.0364C8.04943 27.9795 8.27182 27.904 8.49422 27.841C8.65483 27.7969 8.66717 27.778 8.59923 27.6268C8.14209 26.5742 7.58611 25.5785 6.93746 24.6332C6.54827 24.0724 6.14055 23.5177 5.75752 22.9505C5.65251 22.7929 5.59073 22.6102 5.51043 22.4463ZM2.21776 27.7023C2.19923 27.652 2.1807 27.6015 2.16834 27.5574C2.06332 27.2486 1.93977 26.9461 1.85946 26.6247C1.66796 25.8432 1.80386 25.1247 2.34132 24.5134C2.69344 24.1101 3.14439 23.8454 3.56449 23.5429C3.91042 23.2971 4.31815 23.1396 4.58379 22.7866C4.60849 22.7551 4.65792 22.7362 4.6888 22.7047C4.83707 22.5787 4.99151 22.4589 5.13359 22.3329C5.183 22.2888 5.20772 22.2258 5.25714 22.1501C5.12124 22.1312 5.02239 22.1186 4.91738 22.106C4.61467 22.0619 4.29961 22.043 4.04015 21.8602C3.94749 21.7909 3.88571 21.7972 3.79304 21.8413C3.27412 22.0745 2.8108 22.4022 2.37839 22.7677C1.92124 23.1522 1.53823 23.6186 1.37761 24.2172C1.08726 25.2571 1.23552 26.2528 1.74209 27.1981C1.85328 27.3934 2.00155 27.5763 2.21776 27.7023ZM34.9406 27.6079C34.9529 27.6204 34.9652 27.6268 34.9777 27.6393C35.0703 27.5322 35.1815 27.4376 35.2617 27.3243C35.6138 26.8264 35.7806 26.2528 35.8547 25.6542C35.9845 24.5955 35.7375 23.6689 34.9591 22.919C34.4773 22.4526 33.9584 22.0556 33.3468 21.7846C33.2912 21.7594 33.1923 21.7279 33.1615 21.7531C32.9513 21.9359 32.6981 21.9674 32.4447 22.0178C32.2656 22.0493 32.0866 22.0682 31.8764 22.0997C31.932 22.1817 31.9629 22.2447 32.0184 22.2888C32.1915 22.4337 32.3768 22.5724 32.5559 22.711C32.5992 22.7488 32.6486 22.7866 32.6856 22.8245C32.7537 22.8938 32.8031 22.982 32.8835 23.0324C33.3035 23.316 33.7297 23.587 34.156 23.8581C34.6008 24.1417 34.9591 24.5072 35.1876 24.9923C35.4718 25.5973 35.41 26.2087 35.2186 26.8201C35.1382 27.0848 35.0333 27.3432 34.9406 27.6079ZM6.30116 26.3852C5.8193 26.6813 5.36217 26.9588 4.9112 27.2422C4.88648 27.2613 4.86795 27.3495 4.89266 27.3873C4.98533 27.5699 5.09034 27.7464 5.20154 27.9165C5.22007 27.9482 5.30657 27.9795 5.33745 27.9607C5.78842 27.6962 6.22703 27.4187 6.67181 27.1478C6.69653 27.1289 6.72123 27.0659 6.70888 27.0407C6.57915 26.8264 6.44324 26.6122 6.30116 26.3852ZM30.3876 27.0279C30.4186 27.0468 30.4371 27.0596 30.4494 27.0721C30.8942 27.3432 31.339 27.614 31.79 27.8788C31.8208 27.8977 31.9073 27.8724 31.9258 27.841C32.037 27.6645 32.1422 27.4817 32.2408 27.2927C32.2594 27.2613 32.2348 27.173 32.2038 27.1542C31.7775 26.8894 31.3452 26.6372 30.919 26.3727C30.8509 26.3347 30.8138 26.3411 30.7768 26.4104C30.6533 26.6058 30.5298 26.8076 30.3876 27.0279ZM5.77605 25.4966C5.75136 25.503 5.72664 25.503 5.71429 25.5155C5.27567 25.7802 4.84325 26.0449 4.40463 26.3095C4.33049 26.3536 4.33668 26.4104 4.37374 26.4734C4.46641 26.6372 4.55289 26.7948 4.63939 26.9588C4.68262 27.0407 4.72587 27.0532 4.80619 27.0027C5.23244 26.7382 5.6587 26.4798 6.08495 26.2214C6.1529 26.1834 6.16524 26.1393 6.12202 26.0763C6.00463 25.8873 5.89344 25.692 5.77605 25.4966ZM32.4324 26.9902C32.5559 26.7696 32.6671 26.5681 32.7723 26.3599C32.7845 26.3347 32.7598 26.2656 32.7352 26.2528C32.309 25.9881 31.8764 25.7236 31.4379 25.465C31.4131 25.4525 31.3452 25.465 31.3327 25.4841C31.2093 25.6794 31.0918 25.8873 30.9621 26.1016C31.4625 26.3977 31.9383 26.6877 32.4324 26.9902ZM5.63398 25.2257C5.4919 24.9862 5.39305 24.8097 5.28185 24.6396C5.27567 24.6269 5.21391 24.6396 5.18919 24.6521C4.76912 24.9105 4.35521 25.1688 3.94131 25.4272C3.87954 25.465 3.84864 25.5091 3.89189 25.5848C3.96602 25.7172 4.04015 25.8557 4.1081 25.9944C4.14517 26.0638 4.18223 26.0891 4.25636 26.0449C4.67027 25.7866 5.09034 25.5282 5.50425 25.2696C5.5475 25.2507 5.59073 25.2382 5.63398 25.2257ZM31.8764 24.5513C31.8517 24.5764 31.8271 24.6016 31.8086 24.6332C31.7344 24.7656 31.6663 24.898 31.5862 25.024C31.5366 25.1058 31.5551 25.1625 31.6293 25.213C32.0432 25.465 32.451 25.7236 32.871 25.9756C32.902 25.9944 32.9884 25.9692 33.0069 25.9378C33.0873 25.8116 33.149 25.6731 33.2293 25.5471C33.2849 25.4525 33.2664 25.402 33.1737 25.3453C32.7723 25.1058 32.3706 24.8538 31.9691 24.608C31.9443 24.5891 31.9198 24.5702 31.8764 24.5513ZM5.4054 28.257C5.48571 28.4019 5.56603 28.5279 5.63398 28.6603C5.69576 28.7801 5.75136 28.8051 5.8749 28.7296C6.22703 28.4965 6.5915 28.2884 6.94362 28.0553C7.26486 27.8474 7.29574 27.9482 7.04866 27.5699C7.02394 27.5258 6.99306 27.488 6.96834 27.4439C6.92509 27.3684 6.88186 27.3432 6.7892 27.3998C6.54827 27.551 6.30116 27.6898 6.06023 27.8347C5.85019 27.9734 5.63398 28.1119 5.4054 28.257ZM30.2393 27.2613C30.1344 27.425 30.0354 27.5699 29.9553 27.7212C29.9368 27.7528 29.9676 27.8347 30.0046 27.8599C30.4371 28.1308 30.8694 28.4019 31.3019 28.6728C31.3698 28.7169 31.4194 28.7108 31.4564 28.635C31.5181 28.5279 31.5737 28.4144 31.6478 28.3137C31.7219 28.219 31.7034 28.1624 31.6047 28.0994C31.1599 27.8283 30.7089 27.551 30.2393 27.2613ZM33.4332 25.1375C33.5011 25.0176 33.5567 24.9168 33.6123 24.8097C33.6679 24.7087 33.6433 24.6396 33.5444 24.5764C33.1675 24.356 32.7968 24.1226 32.4262 23.8959C32.2594 23.7951 32.2534 23.7951 32.1667 23.9652C32.1359 24.0282 32.1051 24.0912 32.068 24.1479C32.0247 24.2236 32.031 24.2739 32.1051 24.318C32.5374 24.5891 32.9699 24.86 33.4332 25.1375ZM5.12124 24.3307C5.04711 24.1856 4.98533 24.0535 4.9112 23.9336C4.89885 23.9084 4.81853 23.9022 4.79381 23.9211C4.37993 24.1731 3.96602 24.4315 3.5583 24.6899C3.52742 24.7087 3.49652 24.7717 3.5027 24.797C3.5583 24.9357 3.62009 25.0681 3.68803 25.2193C4.18223 24.9168 4.64555 24.6269 5.12124 24.3307ZM3.34209 24.5072C3.80541 24.2172 4.2502 23.9464 4.6888 23.6689C4.71352 23.65 4.73205 23.587 4.71968 23.5555C4.67027 23.4484 4.61467 23.3476 4.54054 23.2152C4.09575 23.5114 3.6695 23.7951 3.24324 24.0849C3.21853 24.1037 3.19383 24.1667 3.20618 24.1984C3.24324 24.3055 3.29266 24.4001 3.34209 24.5072ZM33.9584 24.0912C33.9273 24.0596 33.8965 24.0155 33.8595 23.9902C33.5196 23.7699 33.18 23.5429 32.8339 23.3286C32.5622 23.1585 32.5559 23.1648 32.4262 23.4673C32.3891 23.5429 32.3954 23.5933 32.4757 23.6375C32.8835 23.8831 33.2849 24.1354 33.6927 24.381C33.7235 24.4001 33.7916 24.4062 33.8039 24.3874C33.8595 24.2991 33.9028 24.1984 33.9584 24.0912ZM31.0487 29.24C31.0795 29.2023 31.1103 29.1645 31.1351 29.1268C31.2463 28.9628 31.2463 28.9564 31.0858 28.8493C30.7707 28.6478 30.4557 28.4524 30.1466 28.2507C30.0417 28.1877 29.9368 28.1247 29.8256 28.0617C29.8008 28.0489 29.7637 28.0617 29.7329 28.0678C29.7452 28.0994 29.7452 28.1372 29.7637 28.156C29.8008 28.1877 29.8501 28.2065 29.8934 28.2318C30.091 28.3641 30.2949 28.4838 30.4742 28.6414C30.6718 28.8179 30.8449 29.0258 31.0487 29.24ZM6.08495 29.3346C6.12818 29.2841 6.15908 29.2528 6.18378 29.2275C6.33204 29.0635 6.46177 28.8809 6.62856 28.7421C6.85714 28.5595 7.11042 28.4083 7.35134 28.2443C7.38225 28.2254 7.39459 28.1813 7.41931 28.1499C7.38225 28.1435 7.339 28.1247 7.31428 28.1435C6.86949 28.4208 6.43089 28.698 5.99229 28.9753C5.92432 29.0194 5.90578 29.0635 5.95522 29.1329C5.99229 29.1898 6.02935 29.2528 6.08495 29.3346Z" fill="black"/>
<path d="M20.2379 35.7314C20.3244 35.7439 20.4047 35.7502 20.4912 35.7627C20.5654 35.7755 20.6395 35.788 20.7074 35.8007C20.8248 35.8196 20.9051 35.7691 20.936 35.6431C21.1152 35.0065 21.2943 34.3763 21.4673 33.7399C21.4735 33.7272 21.4735 33.7083 21.4796 33.6958C21.5723 33.305 21.5476 33.2673 21.1646 33.1349C20.9298 33.0528 20.9298 33.0528 20.936 32.7944C20.9422 32.4731 20.9545 32.1517 20.9545 31.8303C20.9545 31.4962 20.8866 31.4332 20.5592 31.4459C20.4727 31.4459 20.3924 31.4521 20.3059 31.4521C20.1515 31.4521 20.1082 31.3955 20.17 31.2442C20.2318 31.093 20.3059 30.9417 20.38 30.7968C20.4542 30.6581 20.4418 30.5257 20.3491 30.3997C20.102 30.0467 19.7561 29.8702 19.3422 29.8577C19.2619 29.8577 19.163 29.946 19.0951 30.0154C18.9221 30.2107 18.7677 30.4122 18.5885 30.6392C18.4156 30.425 18.2426 30.2357 18.0943 30.0342C17.9955 29.9019 17.8904 29.8514 17.7298 29.883C17.353 29.9585 17.0441 30.1225 16.8155 30.4438C16.7352 30.5573 16.7229 30.6706 16.7908 30.7968C16.8711 30.9481 16.9453 31.0993 17.0132 31.2567C17.0935 31.4396 17.0565 31.4901 16.8588 31.4962C16.7476 31.5026 16.6302 31.4901 16.519 31.4901C16.3337 31.4962 16.2472 31.5656 16.2472 31.7546C16.2472 32.1517 16.2534 32.5488 16.2657 32.9457C16.2719 33.0969 16.241 33.1979 16.0742 33.2293C15.9754 33.2482 15.8889 33.2923 15.7901 33.3175C15.6727 33.3492 15.6233 33.4247 15.6542 33.5445C15.8518 34.2503 16.0434 34.9563 16.2472 35.662C16.3028 35.851 16.3831 35.889 16.5746 35.8574C16.6426 35.8449 16.7105 35.8257 16.7785 35.8132C16.8464 35.8007 16.9144 35.788 16.9823 35.7816C16.9885 35.7944 17.0009 35.8069 17.0071 35.8196C16.9576 35.8637 16.9082 35.914 16.8526 35.9456C16.5128 36.1282 16.5128 36.1285 16.6055 36.5065C16.6673 36.7585 16.7291 37.0168 16.7908 37.2691C16.8959 37.7228 16.7167 38.0631 16.3893 38.3467C15.8395 38.8257 15.1723 39.0147 14.4928 39.1787C13.5167 39.4243 12.5159 39.4748 11.5213 39.437C10.6441 39.4054 9.77926 39.2605 8.95145 38.958C8.26573 38.706 7.71593 38.2523 7.25261 37.6851C6.94374 37.3068 6.70281 36.8783 6.47423 36.4371C6.03563 35.5926 5.68967 34.7168 5.51671 33.784C5.33755 32.8197 5.33139 31.8492 5.64644 30.8976C5.8194 30.3809 5.9862 29.8702 6.31362 29.4229C6.6225 29.0005 7.03022 28.698 7.49973 28.5026C7.95067 28.3136 8.42018 28.1749 8.88969 28.0364C9.67423 27.8094 10.4279 27.488 11.1569 27.1162C12.0711 26.6563 12.8989 26.0702 13.6835 25.4083C14.3754 24.8222 15.0426 24.2109 15.7345 23.6248C16.241 23.1963 16.7847 22.8245 17.4086 22.585C18.187 22.2825 18.9654 22.251 19.7437 22.6039C20.5345 22.9631 21.2387 23.4547 21.8874 24.0407C22.8572 24.9232 23.827 25.8118 24.9453 26.4987C25.9213 27.0973 26.9468 27.589 28.0465 27.9165C28.5284 28.0616 29.0162 28.2002 29.4858 28.3703C30.3075 28.6728 30.8387 29.2716 31.1908 30.0784C31.8209 31.5026 31.8272 32.9584 31.4009 34.4331C31.1229 35.3973 30.7275 36.3111 30.1778 37.1556C29.5229 38.1641 28.6333 38.8132 27.478 39.0715C25.7484 39.4495 24.0186 39.4495 22.2951 38.9958C21.77 38.8573 21.2572 38.6681 20.831 38.2962C20.4912 38.0001 20.2997 37.6535 20.4109 37.1872C20.4789 36.8908 20.5468 36.6011 20.621 36.3047C20.6766 36.0969 20.6518 36.0339 20.448 35.9392C20.3615 35.8951 20.275 35.8449 20.1885 35.8007C20.2194 35.7691 20.2318 35.7502 20.2379 35.7314ZM22.9623 34.1179C22.882 34.1179 22.8325 34.1243 22.7769 34.1179C22.5854 34.0927 22.3939 34.0676 22.2086 34.036C22.0603 34.0171 21.9739 34.0865 21.9183 34.2125C21.6835 34.7168 21.5414 35.2524 21.4364 35.7944C21.3684 36.141 21.3561 36.4876 21.5847 36.7901C21.8194 37.1051 22.1036 37.351 22.4557 37.5211C23.1538 37.8677 23.8952 38.0317 24.6735 38.0631C25.7545 38.1136 26.7738 37.9057 27.6881 37.2755C28.2626 36.872 28.7137 36.3741 28.9113 35.662C29.183 34.704 28.8494 33.62 28.0402 33.0592C27.1199 32.4226 26.0139 32.4353 25.0317 33.0467C24.7537 33.2232 24.5128 33.4624 24.2658 33.6894C23.8704 34.0613 23.2094 34.1306 22.8634 33.6139C22.746 33.4374 22.6225 33.2545 22.5298 33.0655C22.2827 32.5299 22.0541 31.9816 21.8132 31.4396C21.5538 30.866 21.3005 30.2862 21.0163 29.719C20.8186 29.3221 20.5592 28.9564 20.1823 28.7169C19.2125 28.0994 18.2179 28.1246 17.2233 28.6414C16.7414 28.8934 16.4202 29.3283 16.1854 29.8072C15.8827 30.425 15.6171 31.0613 15.3329 31.6854C15.0487 32.3029 14.7708 32.9268 14.4681 33.5382C14.3198 33.8407 14.0789 34.0424 13.7206 34.0549C13.424 34.0676 13.1646 33.9667 12.9545 33.7588C12.5406 33.3428 12.0897 33.0025 11.5275 32.8197C10.7491 32.5677 9.98928 32.637 9.29741 33.0655C7.91979 33.9164 7.91361 35.7377 8.78465 36.7143C9.631 37.6598 10.7059 38.0947 11.9229 38.1702C12.7074 38.2207 13.4796 38.1199 14.2271 37.8488C14.6596 37.6851 15.0735 37.4897 15.4132 37.1556C15.6974 36.872 15.9074 36.557 15.8518 36.1285C15.7654 35.473 15.5924 34.8364 15.302 34.2378C15.2464 34.1243 15.1476 34.0676 15.0179 34.0927C14.8943 34.1118 14.7769 34.1368 14.6534 34.1495C14.5298 34.1684 14.4063 34.1748 14.2827 34.1873C14.3013 34.1179 14.3321 34.0865 14.3569 34.0485C14.4928 33.8659 14.6596 33.6958 14.7522 33.4877C15.1352 32.6621 15.4935 31.8176 15.8704 30.9858C16.0619 30.5698 16.2534 30.1602 16.4758 29.7631C16.692 29.3724 16.9885 29.0258 17.3715 28.799C17.8287 28.5215 18.3414 28.4713 18.8603 28.5026C19.3916 28.5343 19.8735 28.7108 20.2688 29.0888C20.621 29.4292 20.8557 29.8514 21.0534 30.2862C21.4302 31.1243 21.7885 31.9688 22.1653 32.8072C22.363 33.242 22.536 33.7019 22.9252 34.0171C22.9252 34.0549 22.9314 34.0738 22.9623 34.1179Z" fill="white"/>
<path d="M30.5976 12.2305C30.3134 12.1801 30.0479 12.1297 29.7822 12.0793C28.0834 11.7579 26.3659 11.5373 24.6423 11.3923C22.4617 11.2159 20.281 11.1718 18.1003 11.2159C16.7598 11.2411 15.413 11.26 14.0725 11.3167C11.5953 11.4238 9.14279 11.7327 6.70881 12.2242C6.65939 12.2368 6.60996 12.2431 6.56054 12.2431C6.5482 12.2431 6.52966 12.2368 6.50495 12.2305C6.50495 12.1045 6.49876 11.9721 6.50495 11.8461C6.55436 11.1465 6.58526 10.447 6.67174 9.75377C6.80147 8.72021 6.99298 7.68666 7.45012 6.74133C7.98139 5.62583 8.7783 4.76245 9.90264 4.23936C11.2308 3.61545 12.6208 3.2121 14.0663 2.98523C15.413 2.77726 16.7659 2.70794 18.125 2.69534C19.2802 2.68272 20.4354 2.67642 21.5907 2.76466C22.9065 2.87179 24.21 3.09236 25.4703 3.5083C26.3043 3.78562 27.1197 4.10701 27.861 4.59228C28.4478 4.97672 28.9111 5.48718 29.2818 6.08589C29.844 6.9808 30.1158 7.98285 30.3011 9.01011C30.4864 10.0185 30.5297 11.0394 30.6039 12.0604C30.6099 12.1108 30.6039 12.1612 30.5976 12.2305Z" fill="white"/>
<path d="M9.06862 27.7275C9.01919 27.6268 8.97596 27.5197 8.92036 27.4187C8.47557 26.6247 8.03079 25.8307 7.57363 25.0365C7.34507 24.6396 7.17209 24.2172 7.07943 23.7635C6.93116 23.0829 7.30182 22.3896 7.86399 22.043C8.22228 21.8287 8.62384 21.7594 9.00684 21.6333C10.3165 21.1985 11.5396 20.5746 12.6702 19.7742C13.5227 19.1692 14.3443 18.5138 15.1783 17.8709C15.8269 17.3668 16.4941 16.8878 17.2539 16.5727C18.1559 16.2009 19.0578 16.2324 19.9535 16.6042C20.7752 16.9445 21.4794 17.4676 22.1713 18.0096C22.8509 18.539 23.5303 19.081 24.2346 19.5851C25.4825 20.4737 26.8231 21.1859 28.2932 21.6333C28.5281 21.709 28.7691 21.7594 29.0037 21.8539C29.9427 22.2321 30.2269 23.1144 30.0045 23.9525C29.881 24.4251 29.6524 24.835 29.4115 25.2507C29.1149 25.755 28.8247 26.2656 28.5404 26.7759C28.4044 27.0218 28.281 27.2738 28.1575 27.5258C28.1264 27.5888 28.0956 27.6204 28.0215 27.5827C27.5767 27.3684 27.1197 27.173 26.6871 26.9336C25.8346 26.4734 25.0377 25.9189 24.352 25.213C23.4624 24.2991 22.6037 23.3476 21.7327 22.4211C21.2138 21.8728 20.664 21.3624 20.0153 20.9716C19.2184 20.4927 18.3844 20.3918 17.5319 20.7763C16.9389 21.0473 16.42 21.438 15.969 21.9107C15.1103 22.8119 14.264 23.7319 13.4176 24.6521C12.6887 25.4461 11.8856 26.1521 10.959 26.7002C10.4833 26.9777 9.98908 27.2108 9.50104 27.4692C9.35896 27.5638 9.22305 27.6457 9.06862 27.7275Z" fill="white"/>
<path d="M6.62859 16.9067C6.61005 17.1714 6.58536 17.4361 6.56683 17.6945C6.50504 18.5768 6.45563 19.4654 6.38766 20.3477C6.36297 20.6817 6.30737 21.0094 6.2703 21.3372C6.20852 21.8602 6.37531 22.3014 6.73978 22.6606C6.84482 22.7678 6.86951 22.856 6.83863 23.0009C6.78922 23.2593 6.77069 23.524 6.73362 23.814C6.64712 23.7069 6.56683 23.6186 6.4927 23.5114C6.34443 23.2908 6.18999 23.0765 6.05407 22.8497C5.81314 22.4526 5.75138 22.0115 5.78226 21.5577C5.84405 20.5935 5.91818 19.6293 5.96759 18.665C6.01084 17.7701 6.03554 16.8752 6.05407 15.974C6.06644 15.5266 6.04172 15.0791 6.03554 14.6316C6.03554 14.5497 6.02937 14.4678 6.03554 14.3922C6.05407 14.1023 6.07879 14.0708 6.35059 14.0077C7.69114 13.6989 9.04404 13.472 10.4031 13.2893C12.1637 13.0498 13.9305 12.9364 15.7035 12.8733C16.7846 12.8355 17.8657 12.7851 18.9468 12.8103C20.7259 12.8481 22.4989 12.9238 24.278 13.0246C26.4772 13.1569 28.6455 13.4972 30.7953 13.9636C31.061 14.0203 31.0858 14.0455 31.0919 14.3228C31.0981 14.9846 31.0796 15.6463 31.0981 16.3017C31.1352 17.5937 31.1845 18.8793 31.2401 20.1713C31.2586 20.562 31.2957 20.9527 31.3453 21.3435C31.4317 21.9737 31.2957 22.5409 30.9313 23.0576C30.7831 23.2593 30.6348 23.461 30.4928 23.6628C30.468 23.6941 30.4495 23.7258 30.4247 23.7571C30.4124 23.751 30.4001 23.7446 30.3876 23.7383C30.3876 23.6878 30.3816 23.6311 30.3753 23.5807C30.3505 23.3538 30.326 23.1207 30.2889 22.8938C30.2704 22.7993 30.2949 22.7362 30.3505 22.6669C30.5051 22.4589 30.6596 22.251 30.7893 22.0304C30.9313 21.7846 30.9251 21.5073 30.8757 21.2363C30.6781 20.1461 30.604 19.0369 30.5484 17.934C30.5298 17.6315 30.4865 17.329 30.4557 17.0202C30.4432 17.0202 30.4309 17.0202 30.4186 17.0202C30.3816 17.2344 30.3568 17.4487 30.3135 17.663C30.1715 18.3688 30.054 19.081 29.8749 19.7742C29.6773 20.5683 29.0966 21.022 28.4046 21.3498C28.349 21.375 28.2688 21.3624 28.207 21.3372C27.0209 20.9464 25.8966 20.4107 24.8648 19.6986C23.8085 18.9738 22.7892 18.1924 21.7514 17.4361C21.1954 17.0328 20.6332 16.642 19.9969 16.3773C18.9282 15.9425 17.878 15.9866 16.8464 16.5097C16.0865 16.8941 15.4131 17.4046 14.7522 17.9214C13.6155 18.8163 12.4541 19.686 11.1938 20.3918C10.4649 20.8015 9.6865 21.1229 8.88959 21.375C8.84018 21.3939 8.76605 21.3876 8.7228 21.3624C8.43864 21.1859 8.14212 21.0157 7.88266 20.8078C7.48728 20.499 7.30195 20.0452 7.19076 19.5662C7.04868 18.9486 6.94983 18.3247 6.83245 17.7008C6.78304 17.4298 6.73978 17.1588 6.69037 16.8878C6.66565 16.9067 6.64712 16.9067 6.62859 16.9067ZM20.6888 13.9573C20.6888 13.9636 20.6888 13.9636 20.6888 13.9699C20.5715 13.9699 20.4479 13.9573 20.3367 13.9699C20.1267 14.0014 19.9105 14.0203 19.7869 14.2409C19.6386 14.5182 19.7313 14.9089 20.0031 15.1358C20.1205 15.2304 20.2564 15.3123 20.3923 15.3816C20.9915 15.7093 21.6155 15.9992 22.1962 16.3521C23.2835 17.0076 24.3459 17.7071 25.4208 18.3814C25.8596 18.6587 26.2981 18.9423 26.7491 19.2007C27.2989 19.5095 27.7807 19.415 28.1637 18.936C28.349 18.7028 28.5158 18.4445 28.6332 18.1735C28.8371 17.6882 29.0039 17.1903 29.1644 16.6862C29.3312 16.1505 29.4424 15.6022 29.461 15.0413C29.4735 14.7262 29.3623 14.5812 29.0532 14.5119C29.0102 14.5056 28.9668 14.493 28.9235 14.493C28.0587 14.4552 27.2 14.4174 26.3352 14.367C25.3467 14.3102 24.3644 14.2409 23.3762 14.1716C22.4803 14.1086 21.5846 14.0329 20.6888 13.9573ZM8.54984 14.5308C8.54984 14.5245 8.54984 14.5245 8.54984 14.5182C8.43246 14.5182 8.31508 14.5119 8.19153 14.5182C7.90119 14.5371 7.64789 14.6568 7.67261 15.0539C7.68496 15.2556 7.68496 15.4635 7.7344 15.6526C7.87647 16.245 8.02473 16.8311 8.20388 17.4172C8.36451 17.9529 8.59925 18.4634 8.93284 18.9108C9.22318 19.2953 9.70504 19.5788 10.2487 19.2953C10.3661 19.2322 10.4958 19.1881 10.607 19.1125C11.5583 18.5012 12.5097 17.8899 13.461 17.2723C14.4803 16.6105 15.5182 15.9929 16.6054 15.4635C16.8093 15.3627 17.0008 15.2304 17.1676 15.0791C17.3962 14.8774 17.4827 14.6064 17.3776 14.3102C17.2726 14.0077 16.9946 13.951 16.7166 13.951C16.4634 13.9573 16.2039 13.9762 15.9506 13.9951C14.7522 14.0897 13.5599 14.1905 12.3614 14.2787C11.095 14.3733 9.82242 14.4489 8.54984 14.5308Z" fill="white"/>
<path d="M5.20143 31.7673C5.03464 31.5656 4.88638 31.3955 4.75048 31.2126C4.12037 30.3934 3.51495 29.5553 3.03309 28.6289C2.70569 27.9987 2.35356 27.3746 2.18677 26.6752C2.12499 26.4168 2.09411 26.1393 2.08175 25.8685C2.05086 25.2193 2.39682 24.7592 2.86014 24.3685C2.87867 24.356 2.90336 24.3432 2.94043 24.3244C3.00221 24.4379 3.05781 24.545 3.11341 24.6585C3.81147 26.1332 4.6331 27.5258 5.48561 28.9061C5.60916 29.1076 5.74507 29.3094 5.86861 29.5175C5.89333 29.5614 5.90568 29.6496 5.88715 29.6938C5.57209 30.3179 5.35588 30.9731 5.24468 31.6602C5.23234 31.6852 5.22615 31.7043 5.20143 31.7673Z" fill="white"/>
<path d="M34.2116 24.2298C34.3476 24.356 34.4773 24.4504 34.5823 24.5764C34.8294 24.8852 35.0641 25.2257 35.0704 25.6353C35.0764 25.9567 35.0456 26.297 34.9592 26.5995C34.6441 27.6898 34.0819 28.6603 33.464 29.5866C33.044 30.2169 32.5807 30.8219 32.1297 31.4332C32.0803 31.5026 32.0125 31.5656 31.9321 31.6475C31.8827 31.4269 31.8642 31.2379 31.8023 31.0614C31.6418 30.5951 31.4688 30.1286 31.2834 29.6688C31.2341 29.5425 31.2401 29.4606 31.302 29.3535C31.9013 28.3703 32.5066 27.3873 33.0811 26.3852C33.458 25.7297 33.7853 25.0429 34.1375 24.3749C34.1497 24.3433 34.1745 24.2991 34.2116 24.2298Z" fill="white"/>
<path d="M5.75759 17.0391C5.67729 18.3184 5.60316 19.6041 5.51666 20.8834C5.49813 21.1544 5.46106 21.4254 5.43637 21.6964C5.424 21.8035 5.38693 21.8539 5.27573 21.835C4.99158 21.7909 4.7074 21.7657 4.42941 21.7027C4.34909 21.6838 4.2379 21.5892 4.2132 21.5073C4.1267 21.1796 4.05875 20.8519 4.01553 20.5179C3.87343 19.3583 3.85489 18.1987 4.00315 17.0391C4.08347 16.3837 4.19467 15.7282 4.29349 15.0728C4.30587 14.9846 4.33675 14.8963 4.36763 14.8144C4.46029 14.5182 4.46647 14.5056 4.763 14.493C5.02864 14.4804 5.29427 14.493 5.55991 14.4867C5.68346 14.4867 5.73905 14.5245 5.73905 14.6695C5.73289 15.4572 5.73289 16.2513 5.73289 17.0391C5.74524 17.0391 5.75142 17.0391 5.75759 17.0391Z" fill="white"/>
<path d="M31.3884 16.5853C31.3884 15.9803 31.3884 15.2807 31.3884 14.5875C31.3884 14.4867 31.4195 14.4426 31.5121 14.4426C31.8457 14.4426 32.1853 14.4426 32.5189 14.4489C32.6241 14.4489 32.6982 14.5056 32.7228 14.6127C32.828 15.1043 32.97 15.5896 33.0441 16.0811C33.2417 17.4109 33.3221 18.7469 33.1676 20.083C33.112 20.5305 32.9947 20.9716 32.9081 21.4128C32.8773 21.564 32.7846 21.6459 32.6364 21.6585C32.3954 21.6901 32.1545 21.7153 31.9199 21.7594C31.7591 21.7909 31.722 21.709 31.7097 21.5703C31.6664 21.0724 31.6048 20.5809 31.5738 20.083C31.4936 18.9612 31.444 17.8205 31.3884 16.5853Z" fill="white"/>
<path d="M31.6355 22.4022C31.8579 22.5787 32.0865 22.7614 32.3212 22.9379C32.4076 23.0072 32.352 23.0639 32.3212 23.1206C32.1173 23.5114 31.9072 23.9022 31.7033 24.293C31.1103 25.4208 30.4246 26.4987 29.7389 27.5638C29.6587 27.6898 29.5721 27.8094 29.4794 27.9293C29.4548 27.9606 29.4053 27.9923 29.3745 27.9859C29.0902 27.904 28.8062 27.8158 28.5034 27.715C28.5653 27.551 28.6146 27.3873 28.6887 27.2422C29.0965 26.4859 29.4919 25.7108 29.9367 24.9798C30.3259 24.3496 30.7892 23.7699 31.203 23.1585C31.3637 22.919 31.4935 22.6543 31.6355 22.4022Z" fill="white"/>
<path d="M5.51055 22.4464C5.59084 22.6102 5.65263 22.793 5.75764 22.9505C6.14683 23.5177 6.54839 24.0724 6.93758 24.6332C7.58623 25.5723 8.14221 26.5742 8.59935 27.6268C8.66732 27.778 8.65495 27.7969 8.49433 27.841C8.27194 27.904 8.04955 27.9796 7.82715 28.0364C7.77772 28.0489 7.69124 28.03 7.66652 27.9923C7.2341 27.3243 6.78313 26.6688 6.38159 25.982C5.84414 25.0681 5.34992 24.1354 4.831 23.2152C4.76305 23.0955 4.76924 23.0261 4.8866 22.9442C5.10283 22.793 5.30669 22.6165 5.51055 22.4464Z" fill="white"/>
<path d="M2.21782 27.7023C2.0016 27.5763 1.85334 27.3998 1.74214 27.1919C1.24176 26.2465 1.09349 25.2507 1.37766 24.2109C1.54446 23.6123 1.92129 23.1522 2.37844 22.7615C2.81088 22.3959 3.2742 22.0682 3.79312 21.835C3.88578 21.7909 3.94754 21.7846 4.04021 21.8539C4.29966 22.043 4.61472 22.0619 4.91743 22.0997C5.02244 22.1123 5.12129 22.1249 5.25721 22.1438C5.20777 22.2195 5.17689 22.2825 5.13364 22.3266C4.99156 22.4527 4.83712 22.5787 4.68885 22.6984C4.65179 22.7299 4.60856 22.7426 4.58384 22.7804C4.3182 23.1396 3.91048 23.2971 3.56454 23.5366C3.13828 23.8392 2.68731 24.1038 2.34137 24.5072C1.80392 25.1247 1.66801 25.8368 1.85951 26.6183C1.93365 26.9336 2.06338 27.2361 2.1684 27.5511C2.18075 27.6015 2.19928 27.652 2.21782 27.7023Z" fill="white"/>
<path d="M34.9407 27.6079C35.0334 27.3432 35.1383 27.0848 35.2247 26.8201C35.4101 26.2087 35.4782 25.5973 35.1939 24.9924C34.9653 24.5072 34.6071 24.1417 34.1623 23.8581C33.7361 23.587 33.3098 23.3097 32.8896 23.0324C32.8155 22.982 32.7599 22.8938 32.692 22.8245C32.6487 22.7803 32.6056 22.7426 32.5623 22.711C32.3832 22.5724 32.1979 22.4337 32.0248 22.2888C31.9755 22.2447 31.9444 22.1817 31.8828 22.0997C32.0927 22.0682 32.272 22.0493 32.4511 22.0178C32.7043 21.9737 32.9577 21.9359 33.1676 21.7531C33.1986 21.7279 33.2973 21.7594 33.3529 21.7846C33.9645 22.0493 34.4834 22.4527 34.9653 22.919C35.7437 23.6689 35.9908 24.6016 35.8611 25.6542C35.787 26.2592 35.6202 26.8264 35.2681 27.3243C35.1877 27.4376 35.0827 27.5386 34.9838 27.6393C34.9653 27.6268 34.953 27.6141 34.9407 27.6079Z" fill="white"/>
<path d="M6.30121 26.3852C6.44329 26.6183 6.5792 26.8264 6.70893 27.0407C6.72128 27.0595 6.69658 27.1289 6.67186 27.1478C6.22708 27.425 5.78847 27.6962 5.3375 27.9607C5.30662 27.9795 5.22012 27.9481 5.20159 27.9165C5.09039 27.7464 4.98538 27.5638 4.89271 27.3873C4.87418 27.3495 4.88653 27.2613 4.91125 27.2422C5.36222 26.9524 5.81936 26.6752 6.30121 26.3852Z" fill="white"/>
<path d="M30.3875 27.028C30.5297 26.8076 30.6532 26.6058 30.7766 26.4105C30.8137 26.3475 30.857 26.3347 30.9189 26.3727C31.3451 26.6311 31.7774 26.8894 32.2037 27.1542C32.2347 27.1731 32.2593 27.2613 32.2407 27.2927C32.142 27.4817 32.0369 27.6646 31.9257 27.841C31.9071 27.8724 31.8207 27.8977 31.7899 27.8788C31.3389 27.6141 30.9003 27.3432 30.4493 27.0721C30.437 27.0596 30.4245 27.0468 30.3875 27.028Z" fill="white"/>
<path d="M5.77599 25.4966C5.89337 25.692 6.00457 25.8873 6.12195 26.0763C6.15902 26.1393 6.15283 26.1834 6.08488 26.2214C5.65863 26.4798 5.22619 26.7443 4.80612 27.0029C4.7258 27.0532 4.68255 27.0407 4.63932 26.9588C4.55282 26.7948 4.46016 26.6311 4.37368 26.4734C4.33661 26.4041 4.33661 26.3536 4.40456 26.3097C4.84319 26.0449 5.2756 25.7802 5.71423 25.5155C5.72658 25.503 5.74511 25.503 5.77599 25.4966Z" fill="white"/>
<path d="M32.4324 26.9902C31.9382 26.6877 31.4624 26.3977 30.9683 26.1016C31.098 25.881 31.2092 25.6795 31.3389 25.4841C31.3512 25.4588 31.4193 25.4461 31.4439 25.465C31.8764 25.7236 32.3089 25.9881 32.7412 26.2528C32.766 26.2717 32.7907 26.3411 32.7782 26.36C32.667 26.5681 32.5558 26.7696 32.4324 26.9902Z" fill="white"/>
<path d="M5.63399 25.2257C5.59693 25.2382 5.54752 25.2507 5.51045 25.276C5.09036 25.5344 4.67647 25.7866 4.26257 26.0511C4.18843 26.0952 4.14518 26.0702 4.1143 26.0008C4.04636 25.8621 3.97223 25.7236 3.89809 25.5912C3.85484 25.5155 3.88572 25.4714 3.94751 25.4336C4.36142 25.1752 4.78148 24.9169 5.19539 24.6585C5.22009 24.6396 5.28187 24.6332 5.28806 24.6457C5.38688 24.8097 5.49192 24.9862 5.63399 25.2257Z" fill="white"/>
<path d="M31.8765 24.5514C31.9198 24.5764 31.9444 24.5891 31.9692 24.6016C32.3706 24.8475 32.7661 25.0995 33.1738 25.339C33.2665 25.3958 33.2912 25.4461 33.2294 25.5407C33.149 25.6667 33.0874 25.8055 33.007 25.9315C32.9885 25.9631 32.9021 25.9881 32.871 25.9692C32.4573 25.7172 32.0433 25.465 31.6293 25.2066C31.5492 25.1563 31.5367 25.0995 31.5862 25.0176C31.6604 24.8916 31.7282 24.7529 31.8086 24.6269C31.8209 24.6016 31.8517 24.5764 31.8765 24.5514Z" fill="white"/>
<path d="M5.40552 28.257C5.6341 28.1119 5.85031 27.9734 6.06654 27.8347C6.30746 27.6898 6.55455 27.551 6.79548 27.3998C6.88198 27.3432 6.92521 27.3684 6.97464 27.4439C6.99934 27.488 7.03024 27.5258 7.05494 27.5699C7.30205 27.9481 7.27117 27.8474 6.94993 28.0553C6.5978 28.282 6.23333 28.4965 5.88121 28.7296C5.75764 28.8115 5.70204 28.7799 5.64028 28.6602C5.56615 28.5279 5.49202 28.4019 5.40552 28.257Z" fill="white"/>
<path d="M30.2393 27.2613C30.7151 27.551 31.1599 27.8283 31.6107 28.0994C31.7096 28.1624 31.7219 28.2129 31.654 28.3136C31.5799 28.4144 31.5243 28.5279 31.4624 28.635C31.4193 28.7108 31.3697 28.7169 31.3081 28.6728C30.8756 28.4019 30.4431 28.1372 30.0108 27.8599C29.9798 27.841 29.949 27.7528 29.9613 27.7212C30.0354 27.5699 30.1343 27.425 30.2393 27.2613Z" fill="white"/>
<path d="M33.4331 25.1375C32.9761 24.8538 32.5373 24.5891 32.105 24.3244C32.0246 24.2739 32.0184 24.2236 32.0679 24.1542C32.105 24.0976 32.1358 24.0282 32.1666 23.9714C32.2593 23.8012 32.2593 23.8012 32.4261 23.9022C32.7968 24.129 33.1674 24.3621 33.5443 24.5827C33.6493 24.6457 33.6741 24.7151 33.6122 24.8159C33.5506 24.9168 33.495 25.0176 33.4331 25.1375Z" fill="white"/>
<path d="M5.12115 24.3307C4.64546 24.6268 4.18214 24.9168 3.69412 25.2193C3.62615 25.0681 3.5582 24.9357 3.50879 24.797C3.49642 24.7717 3.53349 24.7087 3.56439 24.6898C3.97211 24.4315 4.386 24.1731 4.7999 23.9211C4.83079 23.9022 4.90492 23.9147 4.91729 23.9336C4.98523 24.0596 5.04702 24.1858 5.12115 24.3307Z" fill="white"/>
<path d="M3.34201 24.5072C3.29257 24.3938 3.24316 24.3055 3.21228 24.2048C3.19991 24.1731 3.22462 24.1101 3.24934 24.0913C3.6756 23.8013 4.10185 23.5177 4.54664 23.2215C4.61459 23.3538 4.67637 23.4547 4.72578 23.5618C4.73813 23.587 4.7196 23.6564 4.6949 23.6753C4.25012 23.9525 3.80533 24.2236 3.34201 24.5072Z" fill="white"/>
<path d="M33.9583 24.0912C33.9027 24.1984 33.8657 24.2991 33.8101 24.3874C33.7976 24.4062 33.7297 24.4001 33.6989 24.3812C33.2912 24.1354 32.8895 23.8834 32.4817 23.6375C32.4016 23.587 32.4016 23.5429 32.4324 23.4673C32.5621 23.1648 32.5621 23.1585 32.8401 23.3286C33.186 23.5429 33.5258 23.7699 33.8657 23.9905C33.8965 24.0155 33.9273 24.0535 33.9583 24.0912Z" fill="white"/>
<path d="M31.0487 29.24C30.8449 29.0258 30.6718 28.8179 30.4742 28.6414C30.2949 28.4838 30.0911 28.3642 29.8934 28.2318C29.8501 28.2065 29.8008 28.1877 29.7637 28.1561C29.7452 28.1372 29.7389 28.0994 29.7329 28.0678C29.7637 28.0678 29.8008 28.0489 29.8256 28.0617C29.9368 28.1183 30.0417 28.1813 30.1467 28.2507C30.4617 28.446 30.7768 28.6478 31.0858 28.8493C31.2526 28.9564 31.2526 28.9564 31.1351 29.1268C31.1104 29.1645 31.0795 29.2023 31.0487 29.24Z" fill="white"/>
<path d="M6.08497 29.3346C6.02938 29.2528 5.99231 29.1898 5.94906 29.1329C5.89965 29.0635 5.91818 29.0194 5.98612 28.9753C6.42473 28.698 6.86952 28.4208 7.30814 28.1435C7.33284 28.1308 7.38227 28.1499 7.41315 28.1499C7.38844 28.1813 7.37609 28.2254 7.34521 28.2443C7.10428 28.4083 6.85098 28.5595 6.62243 28.7422C6.45563 28.8809 6.3259 29.0635 6.17764 29.2275C6.15911 29.2589 6.13439 29.2842 6.08497 29.3346Z" fill="white"/>
<path d="M22.9622 34.1179C22.9375 34.0738 22.9313 34.0485 22.9128 34.036C22.5236 33.721 22.3506 33.2609 22.153 32.8261C21.7761 31.988 21.424 31.1435 21.041 30.3051C20.8433 29.8641 20.6085 29.4418 20.2564 29.1076C19.8611 28.7296 19.3792 28.5532 18.8479 28.5215C18.329 28.4902 17.8163 28.5468 17.3591 28.8179C16.97 29.051 16.6796 29.3913 16.4634 29.782C16.241 30.1791 16.0433 30.5951 15.858 31.0047C15.4811 31.8367 15.1228 32.6748 14.7398 33.5066C14.6472 33.7083 14.4804 33.8784 14.3445 34.0677C14.3198 34.1054 14.2889 34.1368 14.2703 34.2062C14.3939 34.1937 14.5174 34.1873 14.641 34.1684C14.7645 34.1495 14.8819 34.1307 15.0055 34.1118C15.1352 34.0927 15.2279 34.1432 15.2896 34.2567C15.58 34.8553 15.753 35.4855 15.8395 36.1474C15.8951 36.5759 15.685 36.8909 15.4008 37.1745C15.0611 37.5086 14.6534 37.7103 14.2147 37.8677C13.4673 38.145 12.695 38.2396 11.9105 38.1891C10.6935 38.1136 9.61859 37.6787 8.77227 36.7335C7.90122 35.7566 7.90741 33.9414 9.285 33.0844C9.97071 32.6559 10.7306 32.5866 11.5151 32.8386C12.0773 33.0214 12.5282 33.3617 12.9421 33.7777C13.1522 33.9855 13.4117 34.0865 13.7082 34.0738C14.0603 34.0613 14.3074 33.8532 14.4557 33.5571C14.7584 32.9457 15.0364 32.3218 15.3205 31.7043C15.6047 31.0802 15.8703 30.4439 16.173 29.8261C16.4139 29.3471 16.729 28.9123 17.2109 28.6603C18.2055 28.1435 19.2001 28.1119 20.1699 28.736C20.5468 28.9755 20.8062 29.3471 21.0039 29.7379C21.2881 30.2987 21.5414 30.8787 21.8008 31.4585C22.0418 32.0005 22.2703 32.5488 22.5174 33.0844C22.6101 33.2798 22.7336 33.4563 22.851 33.6328C23.1909 34.1495 23.8518 34.0802 24.2533 33.7083C24.4942 33.4815 24.7351 33.2421 25.0194 33.0656C26.0016 32.4542 27.1073 32.4417 28.0279 33.0781C28.8371 33.6389 29.1707 34.7168 28.899 35.6809C28.7011 36.393 28.2503 36.8909 27.6758 37.2943C26.7677 37.9307 25.7484 38.1325 24.661 38.082C23.8889 38.0442 23.1475 37.8805 22.4433 37.54C22.0974 37.3699 21.807 37.1242 21.5723 36.809C21.3437 36.5001 21.356 36.1599 21.424 35.8133C21.529 35.2713 21.6711 34.7357 21.9058 34.2314C21.9614 34.1054 22.0541 34.0297 22.1962 34.0549C22.3877 34.0802 22.5792 34.1118 22.7645 34.1368C22.8263 34.1243 22.8819 34.1179 22.9622 34.1179Z" fill="black"/>
<path d="M20.6887 13.9573C21.5845 14.0266 22.4802 14.1023 23.3761 14.1653C24.3583 14.2346 25.3466 14.3039 26.3351 14.3606C27.1998 14.4111 28.0586 14.4426 28.9234 14.4867C28.9667 14.4867 29.01 14.493 29.0531 14.5056C29.3559 14.5749 29.4671 14.7199 29.4609 15.035C29.4423 15.5959 29.3311 16.1442 29.1643 16.6799C29.0038 17.184 28.837 17.6819 28.6331 18.1671C28.5157 18.4381 28.3489 18.6965 28.1636 18.9297C27.7869 19.415 27.2988 19.5032 26.749 19.1944C26.298 18.9423 25.8595 18.6524 25.4207 18.3751C24.3458 17.7008 23.2834 17.0075 22.1961 16.3458C21.6092 15.9929 20.9914 15.6967 20.3922 15.3753C20.2563 15.2997 20.1266 15.224 20.003 15.1295C19.725 14.9089 19.6324 14.5119 19.7868 14.2346C19.9042 14.014 20.1266 13.9951 20.3366 13.9636C20.454 13.9447 20.5714 13.9636 20.6887 13.9636C20.6887 13.9699 20.6887 13.9636 20.6887 13.9573ZM27.3729 19.0432C27.5397 19.0684 27.7188 19.0117 27.8425 18.8667C27.9907 18.6965 28.1327 18.5075 28.2439 18.3121C28.6083 17.6756 28.8555 16.9949 29.0161 16.2765C29.1027 15.8795 29.1521 15.4761 29.2139 15.0728C29.2324 14.9593 29.1891 14.8459 29.0717 14.8018C28.9853 14.764 28.9297 14.7703 28.9111 14.8963C28.7381 15.8984 28.4971 16.8878 28.1142 17.8331C27.9968 18.1167 27.8425 18.394 27.688 18.6587C27.6015 18.7974 27.4778 18.9171 27.3729 19.0432Z" fill="black"/>
<path d="M8.54971 14.5308C9.82229 14.4489 11.0949 14.3732 12.3675 14.285C13.5659 14.1968 14.7582 14.0959 15.9566 14.0014C16.2099 13.9825 16.4694 13.9573 16.7227 13.9573C17.0007 13.951 17.2725 14.0077 17.3837 14.3165C17.4887 14.6064 17.396 14.8837 17.1736 15.0854C17.0068 15.2366 16.8153 15.3753 16.6115 15.4698C15.5242 15.9992 14.4864 16.6168 13.4671 17.2786C12.5157 17.8962 11.5644 18.5075 10.613 19.1188C10.5018 19.1881 10.3721 19.2385 10.2547 19.3016C9.71109 19.5852 9.22924 19.3016 8.9389 18.9171C8.59913 18.4697 8.37055 17.9592 8.20994 17.4235C8.03696 16.8437 7.88869 16.2513 7.74043 15.6589C7.69102 15.4635 7.69102 15.2618 7.67867 15.0602C7.65395 14.6632 7.90723 14.5434 8.19759 14.5245C8.31495 14.5182 8.43233 14.5245 8.55588 14.5245C8.54971 14.5245 8.54971 14.5245 8.54971 14.5308ZM9.73581 19.0621C9.69256 18.9991 9.66784 18.9675 9.64931 18.936C9.51342 18.7281 9.34662 18.539 9.24159 18.3121C8.7412 17.2407 8.4138 16.119 8.22847 14.9468C8.22229 14.8963 8.1914 14.8207 8.16669 14.8207C8.11727 14.8144 8.04314 14.8396 8.00608 14.8774C7.96283 14.9215 7.92576 14.9972 7.92576 15.0602C7.9196 15.1988 7.92576 15.3438 7.94429 15.4824C8.03696 16.1001 8.19759 16.6987 8.41998 17.2849C8.61766 17.8079 8.83387 18.3184 9.17364 18.7659C9.29719 18.936 9.47635 19.0369 9.73581 19.0621Z" fill="black"/>
<path d="M27.373 19.0432C27.478 18.9171 27.6017 18.7974 27.6881 18.6524C27.8426 18.3878 27.9969 18.1168 28.1144 17.8269C28.4973 16.8815 28.7382 15.8984 28.9113 14.89C28.9298 14.764 28.9854 14.764 29.0718 14.7955C29.1893 14.8459 29.2326 14.9531 29.2141 15.0665C29.1585 15.4699 29.1029 15.8732 29.0162 16.2702C28.8557 16.9824 28.6085 17.6693 28.2441 18.3058C28.1329 18.5012 27.9909 18.6903 27.8426 18.8604C27.7189 19.0117 27.5398 19.0684 27.373 19.0432Z" fill="white"/>
<path d="M9.73601 19.0621C9.47655 19.0368 9.30357 18.936 9.16768 18.7659C8.82791 18.3184 8.60551 17.8079 8.414 17.2848C8.19779 16.6987 8.031 16.1 7.93833 15.4824C7.9198 15.3438 7.91361 15.1988 7.9198 15.0602C7.9198 14.9971 7.95687 14.9215 8.00012 14.8774C8.03718 14.8396 8.10513 14.8144 8.16073 14.8207C8.18544 14.8207 8.21633 14.9026 8.22251 14.9467C8.40784 16.1126 8.73524 17.2407 9.23563 18.3121C9.34064 18.5327 9.50743 18.728 9.64335 18.936C9.66807 18.9675 9.6866 18.999 9.73601 19.0621Z" fill="white"/>
<path d="M46.3414 10.3443V34.9214H42.6765V10.3443H46.3414ZM47.7418 34.9214V17.1492H51.1472V19.1643C52.012 17.7548 52.9634 17.0501 54.0012 17.0501H54.131C55.3634 17.0501 56.1202 17.7438 56.4012 19.1312C57.2011 17.7438 58.185 17.0501 59.3526 17.0501H59.5147C60.9851 17.0501 61.7201 17.942 61.7201 19.7258V34.9214H58.2499V21.7409C58.2499 21.2344 58.185 20.871 58.0553 20.6508C57.9471 20.4085 57.7201 20.2874 57.3742 20.2874C56.812 20.2874 56.5094 20.6838 56.4661 21.4766V34.9214H52.9958V21.7409C52.9958 21.2344 52.931 20.871 52.8012 20.6508C52.693 20.4085 52.4554 20.2874 52.0877 20.2874C51.7418 20.2874 51.5039 20.3975 51.3742 20.6178C51.266 20.838 51.212 21.2124 51.212 21.7409V34.9214H47.7418ZM63.0079 17.1492H66.4782V19.0652C67.2997 17.7218 68.2402 17.0501 69.2998 17.0501H69.3323C70.1755 17.0501 70.8133 17.3584 71.2458 17.9751C71.6781 18.5917 71.8944 19.3955 71.8944 20.3865V31.5519C71.8944 32.6751 71.635 33.545 71.1161 34.1616C70.6187 34.7562 69.9916 35.0535 69.235 35.0535H69.1701C68.2835 35.0535 67.3863 34.4919 66.4782 33.3688V41.1317H63.0079V17.1492ZM66.4782 21.4766V30.693C66.4782 31.1336 66.5646 31.4748 66.7377 31.7171C66.9323 31.9372 67.17 32.0474 67.4512 32.0474C68.0565 32.0474 68.3593 31.618 68.3593 30.7591V21.4766C68.3593 20.6178 68.0565 20.1883 67.4512 20.1883C66.8025 20.1883 66.4782 20.6178 66.4782 21.4766ZM77.034 16.918H77.6827C80.2773 16.918 81.5746 18.3935 81.5746 21.3445V26.4647H76.4178V30.5609C76.4178 31.4417 76.7315 31.8822 77.3584 31.8822C77.9422 31.8822 78.234 31.4528 78.234 30.5939V27.6539H81.5746V30.7591C81.5746 33.7541 80.2233 35.2517 77.5205 35.2517H76.9043C75.6937 35.2517 74.7531 34.8772 74.0827 34.1285C73.4125 33.3799 73.0773 32.2676 73.0773 30.7921V21.1793C73.0773 19.902 73.4016 18.878 74.0503 18.1072C74.6989 17.3144 75.6937 16.918 77.034 16.918ZM76.4178 21.3115V23.5578H78.3313V21.3115C78.3313 20.3645 78.0179 19.891 77.3908 19.891C77.1098 19.891 76.8937 19.9571 76.7421 20.0892C76.5909 20.2213 76.4936 20.3865 76.4503 20.5847C76.4287 20.7609 76.4178 21.0031 76.4178 21.3115ZM86.145 17.1492V19.3955C86.837 17.8319 87.7235 17.0501 88.8045 17.0501H88.9342C90.1451 17.0501 90.7504 17.7218 90.7504 19.0652V25.5067H87.3774V21.5427C87.3774 21.1243 87.345 20.838 87.2801 20.6838C87.2153 20.5297 87.0531 20.4526 86.7937 20.4526C86.5342 20.4526 86.372 20.5407 86.3072 20.7169C86.2423 20.871 86.2099 21.1463 86.2099 21.5427V34.9214H82.7396V17.1492H86.145ZM95.3 17.1492V34.9214H91.8297V17.1492H95.3ZM95.3 12.3924V16.1912H91.8297V12.3924H95.3ZM96.45 32.2456V28.0834C96.45 27.1804 96.569 26.4647 96.8067 25.9362C97.0446 25.3857 97.4771 24.9121 98.104 24.5157C98.3419 24.3617 98.6662 24.1743 99.077 23.9542C99.4879 23.734 99.9096 23.5247 100.342 23.3265C100.774 23.1063 101.034 22.9742 101.12 22.9301C101.315 22.798 101.434 22.6989 101.477 22.6328C101.52 22.5667 101.542 22.4126 101.542 22.1703V21.0472C101.542 20.6067 101.477 20.3094 101.347 20.1553C101.218 19.9791 101.001 19.891 100.699 19.891H100.634C100.309 19.891 100.082 19.9791 99.9527 20.1553C99.8229 20.3094 99.7581 20.5957 99.7581 21.0142V22.8971H96.6445V20.3865C96.6445 18.1402 97.8663 17.0171 100.309 17.0171H100.958C102.493 17.0171 103.531 17.3364 104.072 17.9751C104.612 18.5917 104.882 19.4396 104.882 20.5187V31.0894C104.882 31.3096 104.915 31.4639 104.98 31.5519C105.045 31.618 105.196 31.651 105.434 31.651H106.05V34.9214H102.742C101.985 34.9214 101.607 34.2496 101.607 32.9063C100.828 34.3157 99.8771 35.0205 98.7527 35.0205H98.6554C97.9852 35.0205 97.4447 34.7451 97.0337 34.1946C96.6445 33.6441 96.45 32.9943 96.45 32.2456ZM101.542 30.5279V25.9362C100.98 26.2665 100.569 26.5638 100.309 26.8281C100.007 27.1365 99.8554 27.6098 99.8554 28.2485V30.693C99.8554 31.4639 100.126 31.8492 100.666 31.8492C101.25 31.8492 101.542 31.4087 101.542 30.5279ZM110.123 10.3443V34.9214H106.652V10.3443H110.123ZM119.284 20.0892V22.7649H116.17V20.6508C116.17 19.9901 115.911 19.6598 115.392 19.6598C114.894 19.6598 114.646 20.0231 114.646 20.7499V21.0472C114.646 21.4656 114.7 21.807 114.808 22.0712C114.916 22.3135 115.132 22.6328 115.457 23.0292L117.565 25.6058C118.343 26.5527 118.862 27.3786 119.121 28.0834C119.381 28.766 119.511 29.5699 119.511 30.4948V30.9573C119.511 32.1465 119.186 33.1595 118.538 33.9964C117.889 34.8112 116.905 35.2187 115.586 35.2187H114.905C113.608 35.2187 112.656 34.8883 112.051 34.2276C111.446 33.567 111.143 32.6861 111.143 31.5849V28.3807H114.386V30.9243C114.386 31.3867 114.451 31.706 114.581 31.8822C114.711 32.0585 114.938 32.1465 115.262 32.1465C115.802 32.1465 116.073 31.739 116.073 30.9243V30.627C116.073 29.6579 115.759 28.8101 115.132 28.0834L113.089 25.7049C111.943 24.3836 111.37 22.853 111.37 21.1133V20.6178C111.37 19.4506 111.673 18.5366 112.278 17.876C112.905 17.2153 113.856 16.8849 115.132 16.8849H115.748C118.105 16.8849 119.284 17.953 119.284 20.0892Z" fill="white"/>
</svg>
